<svg width="20" height="20" viewBox="0 0 20 20" fill="none" xmlns="http://www.w3.org/2000/svg">
<path d="M17.1667 9.54073H19.0834C19.0834 4.62448 15.3718 0.916687 10.4488 0.916687V2.83335C14.3415 2.83335 17.1667 5.65373 17.1667 9.54073Z" fill="#BDBDBD"/>
<path d="M10.4584 6.66663C12.4737 6.66663 13.3334 7.52626 13.3334 9.54163H15.25C15.25 6.45101 13.549 4.74996 10.4584 4.74996V6.66663ZM13.7378 11.8828C13.5536 11.7155 13.3116 11.6262 13.0629 11.6339C12.8142 11.6416 12.5782 11.7456 12.4047 11.9241L10.1114 14.2825C9.55944 14.1771 8.44969 13.8311 7.30736 12.6917C6.16503 11.5484 5.81907 10.4358 5.71653 9.88759L8.07307 7.59334C8.25171 7.42 8.35591 7.18396 8.3636 6.93516C8.37129 6.68637 8.28187 6.44434 8.11428 6.2603L4.57323 2.36659C4.40557 2.18197 4.17254 2.06999 3.92363 2.05442C3.67473 2.03885 3.42956 2.12093 3.24019 2.28321L1.16061 4.06667C0.994924 4.23296 0.896032 4.45427 0.882693 4.68863C0.868318 4.92822 0.594235 10.6035 4.9949 15.0061C8.83398 18.8442 13.6429 19.125 14.9673 19.125C15.1609 19.125 15.2797 19.1192 15.3114 19.1173C15.5457 19.1042 15.7669 19.0049 15.9324 18.8384L17.7149 16.7579C17.8773 16.5686 17.9595 16.3235 17.9441 16.0746C17.9287 15.8257 17.8169 15.5926 17.6324 15.4248L13.7378 11.8828Z" fill="#BDBDBD"/>
</svg>
