<svg width="21" height="21" viewBox="0 0 21 21" fill="none" xmlns="http://www.w3.org/2000/svg">
<path d="M12.1831 10.3247L9.82485 9.22429C9.61905 9.12874 9.45 9.23584 9.45 9.46369V11.5364C9.45 11.7642 9.61905 11.8713 9.82485 11.7758L12.1821 10.6754C12.3889 10.5788 12.3889 10.4213 12.1831 10.3247ZM10.5 0.420044C4.9329 0.420044 0.419998 4.93294 0.419998 10.5C0.419998 16.0671 4.9329 20.58 10.5 20.58C16.0671 20.58 20.58 16.0671 20.58 10.5C20.58 4.93294 16.0671 0.420044 10.5 0.420044ZM10.5 14.595C5.3403 14.595 5.25 14.1299 5.25 10.5C5.25 6.87019 5.3403 6.40504 10.5 6.40504C15.6597 6.40504 15.75 6.87019 15.75 10.5C15.75 14.1299 15.6597 14.595 10.5 14.595Z" fill="#BDBDBD"/>
</svg>
